<svg width="375" height="511" viewBox="0 0 375 511" fill="none" xmlns="http://www.w3.org/2000/svg">
<g clip-path="url(#clip0)">
<path d="M369.429 148.857C405.012 148.857 433.858 120.012 433.858 84.4286C433.858 48.8457 405.012 20 369.429 20C333.846 20 305 48.8457 305 84.4286C305 120.012 333.846 148.857 369.429 148.857Z" fill="#E1AFA4"/>
<path d="M17.4286 422.858C53.0115 422.858 81.8572 394.012 81.8572 358.429C81.8572 322.846 53.0115 294 17.4286 294C-18.1543 294 -47 322.846 -47 358.429C-47 394.012 -18.1543 422.858 17.4286 422.858Z" fill="#E1AFA4"/>
<path d="M15.4286 248.858C51.0115 248.858 79.8572 220.012 79.8572 184.429C79.8572 148.846 51.0115 120 15.4286 120C-20.1543 120 -49 148.846 -49 184.429C-49 220.012 -20.1543 248.858 15.4286 248.858Z" fill="#E1AFA4"/>
<path d="M373.429 147.857C409.012 147.857 437.858 119.012 437.858 83.4286C437.858 47.8457 409.012 19 373.429 19C337.846 19 309 47.8457 309 83.4286C309 119.012 337.846 147.857 373.429 147.857Z" fill="#E1AFA4"/>
<path d="M21.4286 421.858C57.0115 421.858 85.8572 393.012 85.8572 357.429C85.8572 321.846 57.0115 293 21.4286 293C-14.1543 293 -43 321.846 -43 357.429C-43 393.012 -14.1543 421.858 21.4286 421.858Z" fill="#E1AFA4"/>
<g filter="url(#filter0_d)">
<path d="M127.5 138C157.6 138 182 113.6 182 83.5C182 53.4005 157.6 29 127.5 29C97.4005 29 73 53.4005 73 83.5C73 113.6 97.4005 138 127.5 138Z" fill="#57A6B9"/>
</g>
<g filter="url(#filter1_d)">
<path d="M183.5 454C213.6 454 238 429.6 238 399.5C238 369.4 213.6 345 183.5 345C153.4 345 129 369.4 129 399.5C129 429.6 153.4 454 183.5 454Z" fill="#518390"/>
</g>
<g filter="url(#filter2_d)">
<path d="M135 314C157.644 314 176 295.644 176 273C176 250.356 157.644 232 135 232C112.356 232 94 250.356 94 273C94 295.644 112.356 314 135 314Z" fill="#485172"/>
</g>
<path d="M128.5 135C158.047 135 182 111.047 182 81.5C182 51.9528 158.047 28 128.5 28C98.9528 28 75 51.9528 75 81.5C75 111.047 98.9528 135 128.5 135Z" fill="url(#paint0_linear)"/>
<path d="M184.5 451C214.047 451 238 427.047 238 397.5C238 367.953 214.047 344 184.5 344C154.953 344 131 367.953 131 397.5C131 427.047 154.953 451 184.5 451Z" fill="url(#paint1_linear)"/>
<path d="M136 311C158.091 311 176 293.091 176 271C176 248.909 158.091 231 136 231C113.909 231 96 248.909 96 271C96 293.091 113.909 311 136 311Z" fill="url(#paint2_linear)"/>
<g filter="url(#filter3_d)">
<path d="M237 239C270.137 239 297 212.137 297 179C297 145.863 270.137 119 237 119C203.863 119 177 145.863 177 179C177 212.137 203.863 239 237 239Z" fill="#81A186"/>
</g>
<g filter="url(#filter4_d)">
<path d="M13 251C49.4508 251 79 221.451 79 185C79 148.549 49.4508 119 13 119C-23.4508 119 -53 148.549 -53 185C-53 221.451 -23.4508 251 13 251Z" fill="#CC978B"/>
</g>
<g filter="url(#filter5_d)">
<path d="M371 150C407.451 150 437 120.451 437 84C437 47.5492 407.451 18 371 18C334.549 18 305 47.5492 305 84C305 120.451 334.549 150 371 150Z" fill="#CC978B"/>
</g>
<g filter="url(#filter6_d)">
<path d="M19 423C55.4508 423 85 393.451 85 357C85 320.549 55.4508 291 19 291C-17.4508 291 -47 320.549 -47 357C-47 393.451 -17.4508 423 19 423Z" fill="#E48988"/>
</g>
<g filter="url(#filter7_d)">
<path d="M337 389C377.869 389 411 355.869 411 315C411 274.131 377.869 241 337 241C296.131 241 263 274.131 263 315C263 355.869 296.131 389 337 389Z" fill="#81A186"/>
</g>
<path d="M359.126 78.4287V89.4287H357.68V80.833L354.081 86.8201H353.893L350.294 80.8487V89.4287H348.833V78.4287H350.483L353.987 84.243L357.476 78.4287H359.126ZM367.041 81.5716H368.141V89.4287H366.789V83.913L362.437 89.4287H361.337V81.5716H362.688V87.0873L367.041 81.5716ZM379.619 81.5716H380.986V89.4287H370.222V81.5716H371.589V88.1244H374.92V81.5716H376.288V88.1244H379.619V81.5716ZM389.587 81.5716H390.955V89.4287H389.587V88.0773C388.907 89.1144 387.917 89.633 386.617 89.633C385.517 89.633 384.58 89.2349 383.805 88.4387C383.029 87.632 382.642 86.6525 382.642 85.5001C382.642 84.3478 383.029 83.3735 383.805 82.5773C384.58 81.7706 385.517 81.3673 386.617 81.3673C387.917 81.3673 388.907 81.8859 389.587 82.923V81.5716ZM386.79 88.313C387.587 88.313 388.252 88.0459 388.786 87.5116C389.32 86.9668 389.587 86.2963 389.587 85.5001C389.587 84.7039 389.32 84.0387 388.786 83.5044C388.252 82.9597 387.587 82.6873 386.79 82.6873C386.005 82.6873 385.345 82.9597 384.81 83.5044C384.276 84.0387 384.009 84.7039 384.009 85.5001C384.009 86.2963 384.276 86.9668 384.81 87.5116C385.345 88.0459 386.005 88.313 386.79 88.313Z" fill="white"/>
<path d="M7.12573 352.429V363.429H5.68001V354.833L2.08144 360.82H1.89287L-1.7057 354.849V363.429H-3.16713V352.429H-1.51713L1.98715 358.243L5.47572 352.429H7.12573ZM15.0408 355.572H16.1408V363.429H14.7894V357.913L10.4365 363.429H9.33653V355.572H10.688V361.087L15.0408 355.572ZM27.619 355.572H28.9861V363.429H18.2219V355.572H19.589V362.124H22.9204V355.572H24.2876V362.124H27.619V355.572ZM37.5875 355.572H38.9546V363.429H37.5875V362.077C36.9065 363.114 35.9165 363.633 34.6175 363.633C33.5175 363.633 32.5799 363.235 31.8046 362.439C31.0294 361.632 30.6418 360.653 30.6418 359.5C30.6418 358.348 31.0294 357.373 31.8046 356.577C32.5799 355.771 33.5175 355.367 34.6175 355.367C35.9165 355.367 36.9065 355.886 37.5875 356.923V355.572ZM34.7904 362.313C35.5865 362.313 36.2518 362.046 36.7861 361.512C37.3204 360.967 37.5875 360.296 37.5875 359.5C37.5875 358.704 37.3204 358.039 36.7861 357.504C36.2518 356.96 35.5865 356.687 34.7904 356.687C34.0046 356.687 33.3446 356.96 32.8104 357.504C32.2761 358.039 32.0089 358.704 32.0089 359.5C32.0089 360.296 32.2761 360.967 32.8104 361.512C33.3446 362.046 34.0046 362.313 34.7904 362.313Z" fill="white"/>
<path d="M11.1257 335.429V346.429H9.68001V337.833L6.08144 343.82H5.89287L2.2943 337.849V346.429H0.83287V335.429H2.48287L5.98715 341.243L9.47572 335.429H11.1257ZM19.0408 338.572H20.1408V346.429H18.7894V340.913L14.4365 346.429H13.3365V338.572H14.688V344.087L19.0408 338.572ZM31.619 338.572H32.9861V346.429H22.2219V338.572H23.589V345.124H26.9204V338.572H28.2876V345.124H31.619V338.572ZM41.5875 338.572H42.9546V346.429H41.5875V345.077C40.9065 346.114 39.9165 346.633 38.6175 346.633C37.5175 346.633 36.5799 346.235 35.8046 345.439C35.0294 344.632 34.6418 343.653 34.6418 342.5C34.6418 341.348 35.0294 340.373 35.8046 339.577C36.5799 338.771 37.5175 338.367 38.6175 338.367C39.9165 338.367 40.9065 338.886 41.5875 339.923V338.572ZM38.7904 345.313C39.5865 345.313 40.2518 345.046 40.7861 344.512C41.3204 343.967 41.5875 343.296 41.5875 342.5C41.5875 341.704 41.3204 341.039 40.7861 340.504C40.2518 339.96 39.5865 339.687 38.7904 339.687C38.0046 339.687 37.3446 339.96 36.8104 340.504C36.2761 341.039 36.0089 341.704 36.0089 342.5C36.0089 343.296 36.2761 343.967 36.8104 344.512C37.3446 345.046 38.0046 345.313 38.7904 345.313Z" fill="white"/>
<path d="M5.12573 178.429V189.429H3.68001V180.833L0.08144 186.82H-0.107131L-3.7057 180.849V189.429H-5.16713V178.429H-3.51713L-0.0128455 184.243L3.47572 178.429H5.12573ZM13.0408 181.572H14.1408V189.429H12.7894V183.913L8.43653 189.429H7.33653V181.572H8.68796V187.087L13.0408 181.572ZM25.619 181.572H26.9861V189.429H16.2219V181.572H17.589V188.124H20.9204V181.572H22.2876V188.124H25.619V181.572ZM35.5875 181.572H36.9546V189.429H35.5875V188.077C34.9065 189.114 33.9165 189.633 32.6175 189.633C31.5175 189.633 30.5799 189.235 29.8046 188.439C29.0294 187.632 28.6418 186.653 28.6418 185.5C28.6418 184.348 29.0294 183.373 29.8046 182.577C30.5799 181.771 31.5175 181.367 32.6175 181.367C33.9165 181.367 34.9065 181.886 35.5875 182.923V181.572ZM32.7904 188.313C33.5865 188.313 34.2518 188.046 34.7861 187.512C35.3204 186.967 35.5875 186.296 35.5875 185.5C35.5875 184.704 35.3204 184.039 34.7861 183.504C34.2518 182.96 33.5865 182.687 32.7904 182.687C32.0046 182.687 31.3446 182.96 30.8104 183.504C30.2761 184.039 30.0089 184.704 30.0089 185.5C30.0089 186.296 30.2761 186.967 30.8104 187.512C31.3446 188.046 32.0046 188.313 32.7904 188.313Z" fill="white"/>
<path d="M363.126 77.4287V88.4287H361.68V79.833L358.081 85.8201H357.893L354.294 79.8487V88.4287H352.833V77.4287H354.483L357.987 83.243L361.476 77.4287H363.126ZM371.041 80.5716H372.141V88.4287H370.789V82.913L366.437 88.4287H365.337V80.5716H366.688V86.0873L371.041 80.5716ZM383.619 80.5716H384.986V88.4287H374.222V80.5716H375.589V87.1244H378.92V80.5716H380.288V87.1244H383.619V80.5716ZM393.587 80.5716H394.955V88.4287H393.587V87.0773C392.907 88.1144 391.917 88.633 390.617 88.633C389.517 88.633 388.58 88.2349 387.805 87.4387C387.029 86.632 386.642 85.6525 386.642 84.5001C386.642 83.3478 387.029 82.3735 387.805 81.5773C388.58 80.7706 389.517 80.3673 390.617 80.3673C391.917 80.3673 392.907 80.8859 393.587 81.923V80.5716ZM390.79 87.313C391.587 87.313 392.252 87.0459 392.786 86.5116C393.32 85.9668 393.587 85.2963 393.587 84.5001C393.587 83.7039 393.32 83.0387 392.786 82.5044C392.252 81.9597 391.587 81.6873 390.79 81.6873C390.005 81.6873 389.345 81.9597 388.81 82.5044C388.276 83.0387 388.009 83.7039 388.009 84.5001C388.009 85.2963 388.276 85.9668 388.81 86.5116C389.345 87.0459 390.005 87.313 390.79 87.313Z" fill="white"/>
<path d="M11.1257 351.429V362.429H9.68001V353.833L6.08144 359.82H5.89287L2.2943 353.849V362.429H0.83287V351.429H2.48287L5.98715 357.243L9.47572 351.429H11.1257ZM19.0408 354.572H20.1408V362.429H18.7894V356.913L14.4365 362.429H13.3365V354.572H14.688V360.087L19.0408 354.572ZM31.619 354.572H32.9861V362.429H22.2219V354.572H23.589V361.124H26.9204V354.572H28.2876V361.124H31.619V354.572ZM41.5875 354.572H42.9546V362.429H41.5875V361.077C40.9065 362.114 39.9165 362.633 38.6175 362.633C37.5175 362.633 36.5799 362.235 35.8046 361.439C35.0294 360.632 34.6418 359.653 34.6418 358.5C34.6418 357.348 35.0294 356.373 35.8046 355.577C36.5799 354.771 37.5175 354.367 38.6175 354.367C39.9165 354.367 40.9065 354.886 41.5875 355.923V354.572ZM38.7904 361.313C39.5865 361.313 40.2518 361.046 40.7861 360.512C41.3204 359.967 41.5875 359.296 41.5875 358.5C41.5875 357.704 41.3204 357.039 40.7861 356.504C40.2518 355.96 39.5865 355.687 38.7904 355.687C38.0046 355.687 37.3446 355.96 36.8104 356.504C36.2761 357.039 36.0089 357.704 36.0089 358.5C36.0089 359.296 36.2761 359.967 36.8104 360.512C37.3446 361.046 38.0046 361.313 38.7904 361.313Z" fill="white"/>
<path d="M115.827 82.2957C116.329 82.5367 116.728 82.8824 117.021 83.3329C117.325 83.7833 117.477 84.3019 117.477 84.8886C117.477 85.7686 117.168 86.5071 116.549 87.1043C115.931 87.7014 115.177 88 114.287 88H109.541V77H113.941C114.8 77 115.528 77.2881 116.125 77.8643C116.722 78.4405 117.021 79.1529 117.021 80.0014C117.021 80.9757 116.623 81.7405 115.827 82.2957ZM113.941 78.3671H111.002V81.73H113.941C114.402 81.73 114.789 81.5676 115.104 81.2429C115.418 80.9181 115.575 80.52 115.575 80.0486C115.575 79.5876 115.413 79.1948 115.088 78.87C114.774 78.5348 114.391 78.3671 113.941 78.3671ZM114.287 86.6329C114.779 86.6329 115.193 86.46 115.528 86.1143C115.863 85.7686 116.031 85.3443 116.031 84.8414C116.031 84.349 115.858 83.93 115.512 83.5843C115.177 83.2386 114.768 83.0657 114.287 83.0657H111.002V86.6329H114.287ZM125.344 80.1429V88H123.977V81.4629H120.881V84.6686C120.881 85.9571 120.619 86.8581 120.095 87.3714C119.582 87.8743 118.854 88.0838 117.911 88V86.7114C118.445 86.7848 118.844 86.6695 119.105 86.3657C119.378 86.0514 119.514 85.4752 119.514 84.6371V80.1429H125.344ZM133.921 80.1429H135.288V88H133.921V86.6486C133.24 87.6857 132.25 88.2043 130.951 88.2043C129.851 88.2043 128.914 87.8062 128.138 87.01C127.363 86.2033 126.976 85.2238 126.976 84.0714C126.976 82.919 127.363 81.9448 128.138 81.1486C128.914 80.3419 129.851 79.9386 130.951 79.9386C132.25 79.9386 133.24 80.4571 133.921 81.4943V80.1429ZM131.124 86.8843C131.92 86.8843 132.586 86.6171 133.12 86.0829C133.654 85.5381 133.921 84.8676 133.921 84.0714C133.921 83.2752 133.654 82.61 133.12 82.0757C132.586 81.531 131.92 81.2586 131.124 81.2586C130.338 81.2586 129.678 81.531 129.144 82.0757C128.61 82.61 128.343 83.2752 128.343 84.0714C128.343 84.8676 128.61 85.5381 129.144 86.0829C129.678 86.6171 130.338 86.8843 131.124 86.8843ZM144.117 86.6957H145.201V90.1057H143.85V88H137.957V90.1057H136.606V86.6957H137.564C138.067 86.0043 138.318 85.0352 138.318 83.7886V80.1429H144.117V86.6957ZM139.12 86.6957H142.766V81.4157H139.67V83.7886C139.67 84.9619 139.486 85.931 139.12 86.6957Z" fill="white"/>
<path d="M165.867 393V404H164.421V395.404L160.822 401.391H160.634L157.035 395.42V404H155.574V393H157.224L160.728 398.814L164.217 393H165.867ZM174.583 396.143H175.95V404H174.583V402.649C173.902 403.686 172.912 404.204 171.613 404.204C170.513 404.204 169.575 403.806 168.8 403.01C168.025 402.203 167.637 401.224 167.637 400.071C167.637 398.919 168.025 397.945 168.8 397.149C169.575 396.342 170.513 395.939 171.613 395.939C172.912 395.939 173.902 396.457 174.583 397.494V396.143ZM171.786 402.884C172.582 402.884 173.247 402.617 173.782 402.083C174.316 401.538 174.583 400.868 174.583 400.071C174.583 399.275 174.316 398.61 173.782 398.076C173.247 397.531 172.582 397.259 171.786 397.259C171 397.259 170.34 397.531 169.806 398.076C169.272 398.61 169.004 399.275 169.004 400.071C169.004 400.868 169.272 401.538 169.806 402.083C170.34 402.617 171 402.884 171.786 402.884ZM184.669 404H182.972L179.389 400.276V404H178.022V396.143H179.389V399.616L182.783 396.143H184.543L180.787 399.946L184.669 404ZM188.912 404.204C187.728 404.204 186.743 403.811 185.957 403.026C185.172 402.23 184.779 401.245 184.779 400.071C184.779 398.898 185.172 397.919 185.957 397.133C186.743 396.337 187.728 395.939 188.912 395.939C189.687 395.939 190.384 396.127 191.002 396.504C191.62 396.871 192.081 397.369 192.384 397.997L191.237 398.657C191.038 398.238 190.729 397.903 190.31 397.651C189.902 397.4 189.435 397.274 188.912 397.274C188.126 397.274 187.466 397.541 186.932 398.076C186.408 398.61 186.146 399.275 186.146 400.071C186.146 400.857 186.408 401.517 186.932 402.051C187.466 402.586 188.126 402.853 188.912 402.853C189.435 402.853 189.907 402.732 190.326 402.491C190.745 402.24 191.064 401.905 191.284 401.486L192.447 402.161C192.112 402.78 191.63 403.277 191.002 403.654C190.373 404.021 189.676 404.204 188.912 404.204ZM199.517 396.143H200.617V404H199.265V398.484L194.913 404H193.813V396.143H195.164V401.659L199.517 396.143ZM210.555 396.143V404H209.219V398.296L206.721 402.319H206.548L204.049 398.296V404H202.698V396.143H204.159L206.626 400.119L209.094 396.143H210.555Z" fill="white"/>
<path d="M118.704 277.204C117.039 277.204 115.661 276.654 114.571 275.554C113.492 274.454 112.953 273.103 112.953 271.5C112.953 269.897 113.492 268.546 114.571 267.446C115.661 266.346 117.039 265.796 118.704 265.796C119.71 265.796 120.632 266.037 121.47 266.519C122.319 267 122.979 267.65 123.45 268.467L122.177 269.206C121.863 268.598 121.391 268.116 120.763 267.76C120.145 267.393 119.459 267.21 118.704 267.21C117.437 267.21 116.4 267.619 115.593 268.436C114.797 269.253 114.399 270.274 114.399 271.5C114.399 272.715 114.797 273.731 115.593 274.549C116.4 275.366 117.437 275.774 118.704 275.774C119.459 275.774 120.145 275.596 120.763 275.24C121.391 274.873 121.863 274.391 122.177 273.794L123.45 274.517C122.989 275.334 122.334 275.989 121.486 276.481C120.637 276.963 119.71 277.204 118.704 277.204ZM131.439 269.143H132.806V277H131.439V275.649C130.758 276.686 129.768 277.204 128.469 277.204C127.369 277.204 126.431 276.806 125.656 276.01C124.881 275.203 124.493 274.224 124.493 273.071C124.493 271.919 124.881 270.945 125.656 270.149C126.431 269.342 127.369 268.939 128.469 268.939C129.768 268.939 130.758 269.457 131.439 270.494V269.143ZM128.642 275.884C129.438 275.884 130.103 275.617 130.637 275.083C131.172 274.538 131.439 273.868 131.439 273.071C131.439 272.275 131.172 271.61 130.637 271.076C130.103 270.531 129.438 270.259 128.642 270.259C127.856 270.259 127.196 270.531 126.662 271.076C126.127 271.61 125.86 272.275 125.86 273.071C125.86 273.868 126.127 274.538 126.662 275.083C127.196 275.617 127.856 275.884 128.642 275.884ZM144.274 269.143H145.642V277H134.877V269.143H136.244V275.696H139.576V269.143H140.943V275.696H144.274V269.143ZM154.243 269.143H155.61V277H154.243V275.649C153.562 276.686 152.572 277.204 151.273 277.204C150.173 277.204 149.235 276.806 148.46 276.01C147.685 275.203 147.297 274.224 147.297 273.071C147.297 271.919 147.685 270.945 148.46 270.149C149.235 269.342 150.173 268.939 151.273 268.939C152.572 268.939 153.562 269.457 154.243 270.494V269.143ZM151.446 275.884C152.242 275.884 152.907 275.617 153.441 275.083C153.976 274.538 154.243 273.868 154.243 273.071C154.243 272.275 153.976 271.61 153.441 271.076C152.907 270.531 152.242 270.259 151.446 270.259C150.66 270.259 150 270.531 149.466 271.076C148.931 271.61 148.664 272.275 148.664 273.071C148.664 273.868 148.931 274.538 149.466 275.083C150 275.617 150.66 275.884 151.446 275.884Z" fill="white"/>
<path d="M226.073 173H227.519V184H226.073V179.05H220.731V184H219.269V173H220.731V177.667H226.073V173ZM235.436 176.143H236.536V184H235.185V178.484L230.832 184H229.732V176.143H231.083V181.659L235.436 176.143ZM244.054 176.143H245.421V184H244.054V180.716H239.984V184H238.617V176.143H239.984V179.411H244.054V176.143ZM254.008 176.143H255.375V184H254.008V182.649C253.327 183.686 252.337 184.204 251.038 184.204C249.938 184.204 249.001 183.806 248.225 183.01C247.45 182.203 247.062 181.224 247.062 180.071C247.062 178.919 247.45 177.945 248.225 177.149C249.001 176.342 249.938 175.939 251.038 175.939C252.337 175.939 253.327 176.457 254.008 177.494V176.143ZM251.211 182.884C252.007 182.884 252.672 182.617 253.207 182.083C253.741 181.538 254.008 180.868 254.008 180.071C254.008 179.275 253.741 178.61 253.207 178.076C252.672 177.531 252.007 177.259 251.211 177.259C250.425 177.259 249.765 177.531 249.231 178.076C248.697 178.61 248.43 179.275 248.43 180.071C248.43 180.868 248.697 181.538 249.231 182.083C249.765 182.617 250.425 182.884 251.211 182.884Z" fill="white"/>
<path d="M326.323 306H327.769V317H326.323V312.05H320.981V317H319.519V306H320.981V310.667H326.323V306ZM335.686 309.143H336.786V317H335.435V311.484L331.082 317H329.982V309.143H331.333V314.659L335.686 309.143ZM344.304 309.143H345.671V317H344.304V313.716H340.234V317H338.867V309.143H340.234V312.411H344.304V309.143ZM354.258 309.143H355.625V317H354.258V315.649C353.577 316.686 352.587 317.204 351.288 317.204C350.188 317.204 349.251 316.806 348.475 316.01C347.7 315.203 347.312 314.224 347.312 313.071C347.312 311.919 347.7 310.945 348.475 310.149C349.251 309.342 350.188 308.939 351.288 308.939C352.587 308.939 353.577 309.457 354.258 310.494V309.143ZM351.461 315.884C352.257 315.884 352.922 315.617 353.457 315.083C353.991 314.538 354.258 313.868 354.258 313.071C354.258 312.275 353.991 311.61 353.457 311.076C352.922 310.531 352.257 310.259 351.461 310.259C350.675 310.259 350.015 310.531 349.481 311.076C348.947 311.61 348.68 312.275 348.68 313.071C348.68 313.868 348.947 314.538 349.481 315.083C350.015 315.617 350.675 315.884 351.461 315.884Z" fill="white"/>
<path d="M317.921 318.857L317.026 316.39H312.076L311.18 318.857H309.624L313.726 307.857H315.376L319.477 318.857H317.921ZM312.578 315.023H316.523L314.543 309.602L312.578 315.023ZM326.07 311H327.437V318.857H326.07V315.573H322V318.857H320.633V311H322V314.269H326.07V311ZM336.276 317.553H337.36V320.963H336.008V318.857H330.116V320.963H328.764V317.553H329.723C330.226 316.862 330.477 315.893 330.477 314.646V311H336.276V317.553ZM331.278 317.553H334.924V312.273H331.828V314.646C331.828 315.819 331.645 316.788 331.278 317.553ZM343.171 310.796C344.271 310.796 345.208 311.199 345.983 312.006C346.759 312.802 347.146 313.776 347.146 314.929C347.146 316.081 346.759 317.061 345.983 317.867C345.208 318.664 344.271 319.062 343.171 319.062C341.872 319.062 340.882 318.543 340.201 317.506V322H338.833V311H340.201V312.352C340.882 311.315 341.872 310.796 343.171 310.796ZM342.998 317.742C343.783 317.742 344.443 317.475 344.978 316.94C345.512 316.396 345.779 315.725 345.779 314.929C345.779 314.133 345.512 313.467 344.978 312.933C344.443 312.388 343.783 312.116 342.998 312.116C342.202 312.116 341.536 312.388 341.002 312.933C340.468 313.467 340.201 314.133 340.201 314.929C340.201 315.725 340.468 316.396 341.002 316.94C341.536 317.475 342.202 317.742 342.998 317.742ZM349.736 315.557C349.872 316.259 350.192 316.804 350.695 317.192C351.208 317.579 351.837 317.773 352.581 317.773C353.618 317.773 354.372 317.391 354.843 316.626L356.006 317.286C355.242 318.47 354.089 319.062 352.549 319.062C351.302 319.062 350.286 318.674 349.501 317.899C348.725 317.113 348.338 316.123 348.338 314.929C348.338 313.745 348.72 312.76 349.485 311.975C350.25 311.189 351.24 310.796 352.455 310.796C353.607 310.796 354.545 311.205 355.268 312.022C356.001 312.828 356.368 313.803 356.368 314.945C356.368 315.144 356.352 315.348 356.321 315.557H349.736ZM352.455 312.085C351.722 312.085 351.114 312.294 350.632 312.713C350.15 313.122 349.852 313.672 349.736 314.363H354.985C354.87 313.619 354.576 313.054 354.105 312.666C353.633 312.278 353.083 312.085 352.455 312.085ZM359.228 309.822V308.627H363.471V309.822H359.228ZM363.644 311H364.744V318.857H363.392V313.342L359.039 318.857H357.939V311H359.291V316.516L363.644 311Z" fill="white"/>
<path d="M69.5 23C75.8513 23 81 17.8513 81 11.5C81 5.14873 75.8513 0 69.5 0C63.1487 0 58 5.14873 58 11.5C58 17.8513 63.1487 23 69.5 23Z" fill="#5DADC1"/>
<path d="M69.5 23C75.8513 23 81 17.8513 81 11.5C81 5.14873 75.8513 0 69.5 0C63.1487 0 58 5.14873 58 11.5C58 17.8513 63.1487 23 69.5 23Z" fill="url(#paint3_linear)"/>
<g filter="url(#filter8_d)">
<path d="M122.5 472C128.851 472 134 466.851 134 460.5C134 454.149 128.851 449 122.5 449C116.149 449 111 454.149 111 460.5C111 466.851 116.149 472 122.5 472Z" fill="#518390"/>
</g>
<path d="M355.5 435C361.851 435 367 429.851 367 423.5C367 417.149 361.851 412 355.5 412C349.149 412 344 417.149 344 423.5C344 429.851 349.149 435 355.5 435Z" fill="#C2D2C5"/>
<path d="M355.5 435C361.851 435 367 429.851 367 423.5C367 417.149 361.851 412 355.5 412C349.149 412 344 417.149 344 423.5C344 429.851 349.149 435 355.5 435Z" fill="url(#paint4_linear)"/>
<path d="M263.5 105C269.851 105 275 99.8513 275 93.5C275 87.1487 269.851 82 263.5 82C257.149 82 252 87.1487 252 93.5C252 99.8513 257.149 105 263.5 105Z" fill="#C2D2C5"/>
<path d="M263.5 105C269.851 105 275 99.8513 275 93.5C275 87.1487 269.851 82 263.5 82C257.149 82 252 87.1487 252 93.5C252 99.8513 257.149 105 263.5 105Z" fill="url(#paint5_linear)"/>
<path d="M147.429 48.4476C155.398 52.796 163.15 53.9541 164.743 51.0342C166.336 48.1142 161.168 42.2221 153.199 37.8736C145.23 33.5252 137.478 32.3671 135.885 35.287C134.292 38.207 139.46 44.0991 147.429 48.4476Z" fill="#5BAFC4"/>
<path d="M205.271 361.566C212.048 365.264 218.503 366.5 219.689 364.327C220.875 362.153 216.342 357.394 209.565 353.696C202.788 349.998 196.333 348.762 195.147 350.935C193.961 353.109 198.494 357.868 205.271 361.566Z" fill="#7DB8C5"/>
<path d="M129.976 35.1843C131.067 35.7797 132.453 35.3432 133.072 34.2094C133.691 33.0755 133.308 31.6736 132.216 31.0781C131.125 30.4827 129.739 30.9192 129.12 32.053C128.501 33.1869 128.884 34.5888 129.976 35.1843Z" fill="#5BAFC4"/>
<path d="M238.5 237C271.361 237 298 210.361 298 177.5C298 144.639 271.361 118 238.5 118C205.639 118 179 144.639 179 177.5C179 210.361 205.639 237 238.5 237Z" fill="#C2D2C5"/>
<path d="M238.5 237C271.361 237 298 210.361 298 177.5C298 144.639 271.361 118 238.5 118C205.639 118 179 144.639 179 177.5C179 210.361 205.639 237 238.5 237Z" fill="url(#paint6_linear)"/>
<path d="M14.5 249C50.6747 249 80 219.675 80 183.5C80 147.325 50.6747 118 14.5 118C-21.6747 118 -51 147.325 -51 183.5C-51 219.675 -21.6747 249 14.5 249Z" fill="#C2D2C5"/>
<path d="M14.5 249C50.6747 249 80 219.675 80 183.5C80 147.325 50.6747 118 14.5 118C-21.6747 118 -51 147.325 -51 183.5C-51 219.675 -21.6747 249 14.5 249Z" fill="url(#paint7_linear)"/>
<path d="M372.5 148C408.675 148 438 118.675 438 82.5C438 46.3253 408.675 17 372.5 17C336.325 17 307 46.3253 307 82.5C307 118.675 336.325 148 372.5 148Z" fill="#C2D2C5"/>
<path d="M372.5 148C408.675 148 438 118.675 438 82.5C438 46.3253 408.675 17 372.5 17C336.325 17 307 46.3253 307 82.5C307 118.675 336.325 148 372.5 148Z" fill="url(#paint8_linear)"/>
<path d="M86 356.5C86 392.675 58.6747 419.5 22.5 419.5C-13.6747 419.5 -45 392.675 -45 356.5C-45 320.325 -15.6747 291 20.5 291C56.6747 291 86 320.325 86 356.5Z" fill="#C2D2C5"/>
<path d="M86 356.5C86 392.675 58.6747 419.5 22.5 419.5C-13.6747 419.5 -45 392.675 -45 356.5C-45 320.325 -15.6747 291 20.5 291C56.6747 291 86 320.325 86 356.5Z" fill="url(#paint9_linear)"/>
<path d="M338.5 387C379.093 387 412 354.093 412 313.5C412 272.907 379.093 240 338.5 240C297.907 240 265 272.907 265 313.5C265 354.093 297.907 387 338.5 387Z" fill="#C2D2C5"/>
<path d="M338.5 387C379.093 387 412 354.093 412 313.5C412 272.907 379.093 240 338.5 240C297.907 240 265 272.907 265 313.5C265 354.093 297.907 387 338.5 387Z" fill="url(#paint10_linear)"/>
<path d="M217.564 184L216.668 181.533H211.718L210.823 184H209.267L213.368 173H215.018L219.12 184H217.564ZM212.221 180.166H216.165L214.185 174.744L212.221 180.166ZM225.713 176.143H227.08V184H225.713V180.716H221.643V184H220.276V176.143H221.643V179.411H225.713V176.143ZM235.918 182.696H237.003V186.106H235.651V184H229.758V186.106H228.407V182.696H229.366C229.868 182.004 230.12 181.035 230.12 179.789V176.143H235.918V182.696ZM230.921 182.696H234.567V177.416H231.471V179.789C231.471 180.962 231.288 181.931 230.921 182.696ZM242.813 175.939C243.913 175.939 244.851 176.342 245.626 177.149C246.402 177.945 246.789 178.919 246.789 180.071C246.789 181.224 246.402 182.203 245.626 183.01C244.851 183.806 243.913 184.204 242.813 184.204C241.514 184.204 240.524 183.686 239.843 182.649V187.143H238.476V176.143H239.843V177.494C240.524 176.457 241.514 175.939 242.813 175.939ZM242.641 182.884C243.426 182.884 244.086 182.617 244.621 182.083C245.155 181.538 245.422 180.868 245.422 180.071C245.422 179.275 245.155 178.61 244.621 178.076C244.086 177.531 243.426 177.259 242.641 177.259C241.844 177.259 241.179 177.531 240.645 178.076C240.111 178.61 239.843 179.275 239.843 180.071C239.843 180.868 240.111 181.538 240.645 182.083C241.179 182.617 241.844 182.884 242.641 182.884ZM249.379 180.7C249.515 181.402 249.835 181.947 250.338 182.334C250.851 182.722 251.48 182.916 252.223 182.916C253.261 182.916 254.015 182.533 254.486 181.769L255.649 182.429C254.884 183.612 253.732 184.204 252.192 184.204C250.945 184.204 249.929 183.817 249.143 183.041C248.368 182.256 247.981 181.266 247.981 180.071C247.981 178.888 248.363 177.903 249.128 177.117C249.892 176.331 250.882 175.939 252.098 175.939C253.25 175.939 254.188 176.347 254.911 177.164C255.644 177.971 256.011 178.945 256.011 180.087C256.011 180.286 255.995 180.49 255.963 180.7H249.379ZM252.098 177.227C251.364 177.227 250.757 177.437 250.275 177.856C249.793 178.264 249.494 178.814 249.379 179.506H254.628C254.512 178.762 254.219 178.196 253.748 177.809C253.276 177.421 252.726 177.227 252.098 177.227ZM258.871 174.964V173.77H263.113V174.964H258.871ZM263.286 176.143H264.386V184H263.035V178.484L258.682 184H257.582V176.143H258.933V181.659L263.286 176.143Z" fill="white"/>
<path d="M-6.72167 189L-7.61739 186.533H-12.5674L-13.4631 189H-15.0188L-10.9174 178H-9.26739L-5.16596 189H-6.72167ZM-12.0645 185.166H-8.12024L-10.1002 179.744L-12.0645 185.166ZM1.42741 181.143H2.79455V189H1.42741V185.716H-2.64259V189H-4.00973V181.143H-2.64259V184.411H1.42741V181.143ZM11.6327 187.696H12.717V191.106H11.3656V189H5.47274V191.106H4.12131V187.696H5.07988C5.58274 187.004 5.83416 186.035 5.83416 184.789V181.143H11.6327V187.696ZM6.63559 187.696H10.2813V182.416H7.18559V184.789C7.18559 185.962 7.00226 186.931 6.63559 187.696ZM18.5277 180.939C19.6277 180.939 20.5654 181.342 21.3406 182.149C22.1158 182.945 22.5035 183.919 22.5035 185.071C22.5035 186.224 22.1158 187.203 21.3406 188.01C20.5654 188.806 19.6277 189.204 18.5277 189.204C17.2287 189.204 16.2387 188.686 15.5577 187.649V192.143H14.1906V181.143H15.5577V182.494C16.2387 181.457 17.2287 180.939 18.5277 180.939ZM18.3549 187.884C19.1406 187.884 19.8006 187.617 20.3349 187.083C20.8692 186.538 21.1363 185.868 21.1363 185.071C21.1363 184.275 20.8692 183.61 20.3349 183.076C19.8006 182.531 19.1406 182.259 18.3549 182.259C17.5587 182.259 16.8935 182.531 16.3592 183.076C15.8249 183.61 15.5577 184.275 15.5577 185.071C15.5577 185.868 15.8249 186.538 16.3592 187.083C16.8935 187.617 17.5587 187.884 18.3549 187.884ZM25.0934 185.7C25.2296 186.402 25.5491 186.947 26.0519 187.334C26.5653 187.722 27.1938 187.916 27.9377 187.916C28.9748 187.916 29.7291 187.533 30.2005 186.769L31.3634 187.429C30.5986 188.612 29.4462 189.204 27.9062 189.204C26.6596 189.204 25.6434 188.817 24.8577 188.041C24.0824 187.256 23.6948 186.266 23.6948 185.071C23.6948 183.888 24.0772 182.903 24.8419 182.117C25.6067 181.331 26.5967 180.939 27.8119 180.939C28.9643 180.939 29.9019 181.347 30.6248 182.164C31.3581 182.971 31.7248 183.945 31.7248 185.087C31.7248 185.286 31.7091 185.49 31.6777 185.7H25.0934ZM27.8119 182.227C27.0786 182.227 26.471 182.437 25.9891 182.856C25.5072 183.264 25.2086 183.814 25.0934 184.506H30.3419C30.2267 183.762 29.9334 183.196 29.4619 182.809C28.9905 182.421 28.4405 182.227 27.8119 182.227ZM34.5849 179.964V178.77H38.8278V179.964H34.5849ZM39.0006 181.143H40.1006V189H38.7492V183.484L34.3964 189H33.2964V181.143H34.6478V186.659L39.0006 181.143Z" fill="white"/>
<path d="M359.823 77H361.269V88H359.823V83.05H354.481V88H353.019V77H354.481V81.6671H359.823V77ZM369.186 80.1429H370.286V88H368.935V82.4843L364.582 88H363.482V80.1429H364.833V85.6586L369.186 80.1429ZM377.804 80.1429H379.171V88H377.804V84.7157H373.734V88H372.367V80.1429H373.734V83.4114H377.804V80.1429ZM387.758 80.1429H389.125V88H387.758V86.6486C387.077 87.6857 386.087 88.2043 384.788 88.2043C383.688 88.2043 382.751 87.8062 381.975 87.01C381.2 86.2033 380.812 85.2238 380.812 84.0714C380.812 82.919 381.2 81.9448 381.975 81.1486C382.751 80.3419 383.688 79.9386 384.788 79.9386C386.087 79.9386 387.077 80.4571 387.758 81.4943V80.1429ZM384.961 86.8843C385.757 86.8843 386.422 86.6171 386.957 86.0829C387.491 85.5381 387.758 84.8676 387.758 84.0714C387.758 83.2752 387.491 82.61 386.957 82.0757C386.422 81.531 385.757 81.2586 384.961 81.2586C384.175 81.2586 383.515 81.531 382.981 82.0757C382.447 82.61 382.18 83.2752 382.18 84.0714C382.18 84.8676 382.447 85.5381 382.981 86.0829C383.515 86.6171 384.175 86.8843 384.961 86.8843Z" fill="white"/>
<path d="M6.43465 362.204C4.76894 362.204 3.39132 361.654 2.30179 360.554C1.22275 359.454 0.68322 358.103 0.68322 356.5C0.68322 354.897 1.22275 353.546 2.30179 352.446C3.39132 351.346 4.76894 350.796 6.43465 350.796C7.44036 350.796 8.36227 351.037 9.20036 351.519C10.0489 352 10.7089 352.65 11.1804 353.467L9.90751 354.206C9.59322 353.598 9.12179 353.116 8.49322 352.76C7.87513 352.393 7.18894 352.21 6.43465 352.21C5.16703 352.21 4.12989 352.619 3.32322 353.436C2.52703 354.253 2.12894 355.274 2.12894 356.5C2.12894 357.715 2.52703 358.731 3.32322 359.549C4.12989 360.366 5.16703 360.774 6.43465 360.774C7.18894 360.774 7.87513 360.596 8.49322 360.24C9.12179 359.873 9.59322 359.391 9.90751 358.794L11.1804 359.517C10.7194 360.334 10.0647 360.989 9.21608 361.481C8.36751 361.963 7.44036 362.204 6.43465 362.204ZM19.2948 361.01C18.4882 361.806 17.5086 362.204 16.3563 362.204C15.2039 362.204 14.2244 361.806 13.4177 361.01C12.6215 360.214 12.2234 359.234 12.2234 358.071C12.2234 356.909 12.6215 355.929 13.4177 355.133C14.2244 354.337 15.2039 353.939 16.3563 353.939C17.5086 353.939 18.4882 354.337 19.2948 355.133C20.1015 355.929 20.5048 356.909 20.5048 358.071C20.5048 359.234 20.1015 360.214 19.2948 361.01ZM16.3563 360.869C17.142 360.869 17.802 360.601 18.3363 360.067C18.8705 359.533 19.1377 358.868 19.1377 358.071C19.1377 357.275 18.8705 356.61 18.3363 356.076C17.802 355.541 17.142 355.274 16.3563 355.274C15.581 355.274 14.9263 355.541 14.392 356.076C13.8577 356.61 13.5905 357.275 13.5905 358.071C13.5905 358.868 13.8577 359.533 14.392 360.067C14.9263 360.601 15.581 360.869 16.3563 360.869ZM27.5537 354.143H28.9208V362H27.5537V358.716H23.4837V362H22.1165V354.143H23.4837V357.411H27.5537V354.143ZM36.879 354.143V362H35.5276V359.171H34.3804L32.1804 362H30.5147L32.809 359.093C32.2223 358.946 31.7457 358.653 31.379 358.213C31.0123 357.773 30.829 357.26 30.829 356.673C30.829 355.95 31.0857 355.348 31.599 354.866C32.1123 354.384 32.7566 354.143 33.5318 354.143H36.879ZM33.579 357.946H35.5276V355.416H33.579C33.1914 355.416 32.8614 355.531 32.589 355.761C32.3166 355.992 32.1804 356.301 32.1804 356.689C32.1804 357.066 32.3166 357.37 32.589 357.6C32.8614 357.83 33.1914 357.946 33.579 357.946Z" fill="white"/>
<path d="M326.39 315.617H327.569V319.106H326.107V317H318.847V319.106H317.386V315.617H318.344C319.025 314.769 319.366 313.48 319.366 311.751V306H326.39V315.617ZM319.994 315.617H324.929V307.367H320.827V311.783C320.827 313.449 320.549 314.727 319.994 315.617ZM334.818 309.143H335.918V317H334.566V311.484L330.213 317H329.113V309.143H330.465V314.659L334.818 309.143ZM345.856 309.143V317H344.52V311.296L342.022 315.319H341.849L339.35 311.296V317H337.999V309.143H339.46L341.927 313.119L344.394 309.143H345.856ZM354.449 309.143H355.816V317H354.449V315.649C353.768 316.686 352.778 317.204 351.479 317.204C350.379 317.204 349.441 316.806 348.666 316.01C347.891 315.203 347.503 314.224 347.503 313.071C347.503 311.919 347.891 310.945 348.666 310.149C349.441 309.342 350.379 308.939 351.479 308.939C352.778 308.939 353.768 309.457 354.449 310.494V309.143ZM351.652 315.884C352.448 315.884 353.113 315.617 353.647 315.083C354.182 314.538 354.449 313.868 354.449 313.071C354.449 312.275 354.182 311.61 353.647 311.076C353.113 310.531 352.448 310.259 351.652 310.259C350.866 310.259 350.206 310.531 349.672 311.076C349.137 311.61 348.87 312.275 348.87 313.071C348.87 313.868 349.137 314.538 349.672 315.083C350.206 315.617 350.866 315.884 351.652 315.884Z" fill="white"/>
<path d="M261.429 138.448C269.398 142.796 277.15 143.954 278.743 141.035C280.336 138.115 275.168 132.222 267.199 127.874C259.23 123.526 251.478 122.368 249.885 125.287C248.292 128.207 253.46 134.1 261.429 138.448Z" fill="#D8E5DA"/>
<path d="M39.8022 140.475C48.5615 145.255 57.0821 146.528 58.8334 143.318C60.5847 140.109 54.9037 133.632 46.1444 128.853C37.3851 124.073 28.8645 122.8 27.1132 126.01C25.3619 129.219 31.0429 135.696 39.8022 140.475Z" fill="#FFE1DB"/>
<path d="M45.8022 313.475C54.5615 318.255 63.0821 319.528 64.8334 316.318C66.5847 313.109 60.9037 306.632 52.1444 301.853C43.3851 297.073 34.8645 295.8 33.1132 299.01C31.3619 302.219 37.0429 308.696 45.8022 313.475Z" fill="#E69190"/>
<path d="M366.966 265.179C376.78 270.534 386.325 271.96 388.287 268.365C390.249 264.769 383.885 257.513 374.072 252.159C364.258 246.804 354.713 245.378 352.751 248.973C350.789 252.569 357.153 259.825 366.966 265.179Z" fill="#D8E5DA"/>
<path d="M243.976 125.184C245.067 125.78 246.453 125.343 247.072 124.209C247.691 123.075 247.308 121.673 246.216 121.078C245.125 120.482 243.739 120.919 243.12 122.053C242.501 123.187 242.884 124.589 243.976 125.184Z" fill="#D8E5DA"/>
<path d="M122.5 471C128.851 471 134 465.851 134 459.5C134 453.149 128.851 448 122.5 448C116.149 448 111 453.149 111 459.5C111 465.851 116.149 471 122.5 471Z" fill="url(#paint11_linear)"/>
<path d="M125 452C125 453.105 125.895 454 127 454C128.105 454 129 453.105 129 452C129 450.895 128.105 450 127 450C125.895 450 125 450.895 125 452Z" fill="#81B8C6"/>
</g>
<defs>
<filter id="filter0_d" x="57" y="29" width="141" height="148" filterUnits="userSpaceOnUse" color-interpolation-filters="sRGB">
<feFlood flood-opacity="0" result="BackgroundImageFix"/>
<feColorMatrix in="SourceAlpha" type="matrix" values="0 0 0 0 0 0 0 0 0 0 0 0 0 0 0 0 0 0 127 0"/>
<feOffset dy="23"/>
<feGaussianBlur stdDeviation="8"/>
<feColorMatrix type="matrix" values="0 0 0 0 0.317647 0 0 0 0 0.627451 0 0 0 0 0.705882 0 0 0 0.16 0"/>
<feBlend mode="normal" in2="BackgroundImageFix" result="effect1_dropShadow"/>
<feBlend mode="normal" in="SourceGraphic" in2="effect1_dropShadow" result="shape"/>
</filter>
<filter id="filter1_d" x="113" y="345" width="141" height="148" filterUnits="userSpaceOnUse" color-interpolation-filters="sRGB">
<feFlood flood-opacity="0" result="BackgroundImageFix"/>
<feColorMatrix in="SourceAlpha" type="matrix" values="0 0 0 0 0 0 0 0 0 0 0 0 0 0 0 0 0 0 127 0"/>
<feOffset dy="23"/>
<feGaussianBlur stdDeviation="8"/>
<feColorMatrix type="matrix" values="0 0 0 0 0.317647 0 0 0 0 0.627451 0 0 0 0 0.705882 0 0 0 0.16 0"/>
<feBlend mode="normal" in2="BackgroundImageFix" result="effect1_dropShadow"/>
<feBlend mode="normal" in="SourceGraphic" in2="effect1_dropShadow" result="shape"/>
</filter>
<filter id="filter2_d" x="78" y="232" width="114" height="121" filterUnits="userSpaceOnUse" color-interpolation-filters="sRGB">
<feFlood flood-opacity="0" result="BackgroundImageFix"/>
<feColorMatrix in="SourceAlpha" type="matrix" values="0 0 0 0 0 0 0 0 0 0 0 0 0 0 0 0 0 0 127 0"/>
<feOffset dy="23"/>
<feGaussianBlur stdDeviation="8"/>
<feColorMatrix type="matrix" values="0 0 0 0 0.192157 0 0 0 0 0.235294 0 0 0 0 0.392157 0 0 0 0.14 0"/>
<feBlend mode="normal" in2="BackgroundImageFix" result="effect1_dropShadow"/>
<feBlend mode="normal" in="SourceGraphic" in2="effect1_dropShadow" result="shape"/>
</filter>
<filter id="filter3_d" x="161" y="119" width="152" height="159" filterUnits="userSpaceOnUse" color-interpolation-filters="sRGB">
<feFlood flood-opacity="0" result="BackgroundImageFix"/>
<feColorMatrix in="SourceAlpha" type="matrix" values="0 0 0 0 0 0 0 0 0 0 0 0 0 0 0 0 0 0 127 0"/>
<feOffset dy="23"/>
<feGaussianBlur stdDeviation="8"/>
<feColorMatrix type="matrix" values="0 0 0 0 0.623529 0 0 0 0 0.729412 0 0 0 0 0.643137 0 0 0 0.28 0"/>
<feBlend mode="normal" in2="BackgroundImageFix" result="effect1_dropShadow"/>
<feBlend mode="normal" in="SourceGraphic" in2="effect1_dropShadow" result="shape"/>
</filter>
<filter id="filter4_d" x="-69" y="119" width="164" height="171" filterUnits="userSpaceOnUse" color-interpolation-filters="sRGB">
<feFlood flood-opacity="0" result="BackgroundImageFix"/>
<feColorMatrix in="SourceAlpha" type="matrix" values="0 0 0 0 0 0 0 0 0 0 0 0 0 0 0 0 0 0 127 0"/>
<feOffset dy="23"/>
<feGaussianBlur stdDeviation="8"/>
<feColorMatrix type="matrix" values="0 0 0 0 0.894118 0 0 0 0 0.698039 0 0 0 0 0.654902 0 0 0 0.35 0"/>
<feBlend mode="normal" in2="BackgroundImageFix" result="effect1_dropShadow"/>
<feBlend mode="normal" in="SourceGraphic" in2="effect1_dropShadow" result="shape"/>
</filter>
<filter id="filter5_d" x="289" y="18" width="164" height="171" filterUnits="userSpaceOnUse" color-interpolation-filters="sRGB">
<feFlood flood-opacity="0" result="BackgroundImageFix"/>
<feColorMatrix in="SourceAlpha" type="matrix" values="0 0 0 0 0 0 0 0 0 0 0 0 0 0 0 0 0 0 127 0"/>
<feOffset dy="23"/>
<feGaussianBlur stdDeviation="8"/>
<feColorMatrix type="matrix" values="0 0 0 0 0.894118 0 0 0 0 0.698039 0 0 0 0 0.654902 0 0 0 0.35 0"/>
<feBlend mode="normal" in2="BackgroundImageFix" result="effect1_dropShadow"/>
<feBlend mode="normal" in="SourceGraphic" in2="effect1_dropShadow" result="shape"/>
</filter>
<filter id="filter6_d" x="-63" y="291" width="164" height="171" filterUnits="userSpaceOnUse" color-interpolation-filters="sRGB">
<feFlood flood-opacity="0" result="BackgroundImageFix"/>
<feColorMatrix in="SourceAlpha" type="matrix" values="0 0 0 0 0 0 0 0 0 0 0 0 0 0 0 0 0 0 127 0"/>
<feOffset dy="23"/>
<feGaussianBlur stdDeviation="8"/>
<feColorMatrix type="matrix" values="0 0 0 0 0.894118 0 0 0 0 0.698039 0 0 0 0 0.654902 0 0 0 0.35 0"/>
<feBlend mode="normal" in2="BackgroundImageFix" result="effect1_dropShadow"/>
<feBlend mode="normal" in="SourceGraphic" in2="effect1_dropShadow" result="shape"/>
</filter>
<filter id="filter7_d" x="247" y="241" width="180" height="187" filterUnits="userSpaceOnUse" color-interpolation-filters="sRGB">
<feFlood flood-opacity="0" result="BackgroundImageFix"/>
<feColorMatrix in="SourceAlpha" type="matrix" values="0 0 0 0 0 0 0 0 0 0 0 0 0 0 0 0 0 0 127 0"/>
<feOffset dy="23"/>
<feGaussianBlur stdDeviation="8"/>
<feColorMatrix type="matrix" values="0 0 0 0 0.623529 0 0 0 0 0.729412 0 0 0 0 0.643137 0 0 0 0.28 0"/>
<feBlend mode="normal" in2="BackgroundImageFix" result="effect1_dropShadow"/>
<feBlend mode="normal" in="SourceGraphic" in2="effect1_dropShadow" result="shape"/>
</filter>
<filter id="filter8_d" x="95" y="449" width="55" height="62" filterUnits="userSpaceOnUse" color-interpolation-filters="sRGB">
<feFlood flood-opacity="0" result="BackgroundImageFix"/>
<feColorMatrix in="SourceAlpha" type="matrix" values="0 0 0 0 0 0 0 0 0 0 0 0 0 0 0 0 0 0 127 0"/>
<feOffset dy="23"/>
<feGaussianBlur stdDeviation="8"/>
<feColorMatrix type="matrix" values="0 0 0 0 0.317647 0 0 0 0 0.627451 0 0 0 0 0.705882 0 0 0 0.16 0"/>
<feBlend mode="normal" in2="BackgroundImageFix" result="effect1_dropShadow"/>
<feBlend mode="normal" in="SourceGraphic" in2="effect1_dropShadow" result="shape"/>
</filter>
<linearGradient id="paint0_linear" x1="93" y1="106" x2="153" y2="41.5" gradientUnits="userSpaceOnUse">
<stop stop-color="#5DADC1"/>
<stop offset="1" stop-color="#51A0B4"/>
</linearGradient>
<linearGradient id="paint1_linear" x1="149" y1="422" x2="209" y2="357.5" gradientUnits="userSpaceOnUse">
<stop stop-color="#5B8F9C"/>
<stop offset="1" stop-color="#6FA7B5"/>
</linearGradient>
<linearGradient id="paint2_linear" x1="109.458" y1="289.318" x2="154.318" y2="241.093" gradientUnits="userSpaceOnUse">
<stop stop-color="#242E51"/>
<stop offset="1" stop-color="#3C4975"/>
</linearGradient>
<linearGradient id="paint3_linear" x1="69.5" y1="5.54464" x2="69.5" y2="23" gradientUnits="userSpaceOnUse">
<stop stop-color="#5DADC1"/>
<stop offset="1" stop-color="#4E9DB1"/>
</linearGradient>
<linearGradient id="paint4_linear" x1="355.5" y1="412" x2="355.5" y2="435" gradientUnits="userSpaceOnUse">
<stop stop-color="#CEDDD1"/>
<stop offset="1" stop-color="#94B299"/>
</linearGradient>
<linearGradient id="paint5_linear" x1="263.5" y1="82" x2="263.5" y2="105" gradientUnits="userSpaceOnUse">
<stop stop-color="#CEDDD1"/>
<stop offset="1" stop-color="#94B299"/>
</linearGradient>
<linearGradient id="paint6_linear" x1="238.5" y1="118" x2="238.5" y2="237" gradientUnits="userSpaceOnUse">
<stop stop-color="#CEDDD1"/>
<stop offset="1" stop-color="#94B299"/>
</linearGradient>
<linearGradient id="paint7_linear" x1="14.5" y1="118" x2="14.5" y2="249" gradientUnits="userSpaceOnUse">
<stop stop-color="#FFD0C6"/>
<stop offset="1" stop-color="#E1AFA4"/>
</linearGradient>
<linearGradient id="paint8_linear" x1="372.5" y1="17" x2="372.5" y2="148" gradientUnits="userSpaceOnUse">
<stop stop-color="#FFD0C6"/>
<stop offset="1" stop-color="#E1AFA4"/>
</linearGradient>
<linearGradient id="paint9_linear" x1="54.5" y1="269" x2="20.5" y2="422" gradientUnits="userSpaceOnUse">
<stop stop-color="#D37B7A"/>
<stop offset="0.9999" stop-color="#EC9291"/>
<stop offset="1" stop-color="#FFA1A0"/>
</linearGradient>
<linearGradient id="paint10_linear" x1="338.5" y1="240" x2="338.5" y2="387" gradientUnits="userSpaceOnUse">
<stop stop-color="#CEDDD1"/>
<stop offset="1" stop-color="#94B299"/>
</linearGradient>
<linearGradient id="paint11_linear" x1="114.869" y1="464.766" x2="127.766" y2="450.902" gradientUnits="userSpaceOnUse">
<stop stop-color="#5B8F9C"/>
<stop offset="1" stop-color="#6FA7B5"/>
</linearGradient>
<clipPath id="clip0">
<rect width="375" height="511" fill="white"/>
</clipPath>
</defs>
</svg>
