<svg width="100" height="72" viewBox="0 0 100 72" fill="none" xmlns="http://www.w3.org/2000/svg">
<path d="M99.3926 50.982C97.192 60.885 78.4252 73.0498 49.7555 71.3993C21.1469 73.0498 2.38011 60.885 0.179449 50.982C-2.02121 41.079 16.7455 33.9269 16.7455 33.9269C16.7455 33.9269 21.1469 11.798 23.8977 6.84651C24.8758 5.07375 28.4824 3.60664 32.7003 2.38405C43.887 -0.794684 55.8073 -0.794684 66.994 2.38405C71.2119 3.54551 74.7574 5.07375 75.7966 6.84651C78.5475 11.798 82.9488 33.9269 82.9488 33.9269C82.9488 33.9269 101.593 41.079 99.3926 50.982Z" fill="#FFCD6D"/>
<path d="M70.9674 4.82923C70.9674 4.82923 45.3541 -4.15681 31.3554 6.29634C30.1328 7.21328 29.8272 8.80265 30.6219 10.0252C31.9056 11.9814 34.9009 14.4877 42.1142 15.099C54.1567 16.0771 56.5408 4.58471 70.9674 4.82923Z" fill="#F4B963"/>
<path d="M50.5503 52.5101L52.9955 25.4298C53.3011 21.8231 54.2181 18.2776 55.9297 15.0989C57.3968 12.3481 59.4141 9.5361 62.1649 8.68028C68.2167 6.72414 72.9237 5.07364 75.6745 8.68028C78.4254 12.2869 83.1935 36.7999 83.1935 36.7999C83.7436 37.4111 78.6087 47.4975 77.7529 47.3141C76.8971 47.1307 68.7669 50.4317 68.7669 50.4317L50.5503 52.5101Z" fill="#FEC473"/>
<path d="M99.8207 50.1872C99.0872 53.3659 96.7031 56.728 92.852 59.8456L50.9783 51.7154L83.1935 32.7653C83.2547 33.0098 83.2546 33.132 83.2546 33.132C83.2546 33.132 102.021 40.2842 99.8207 50.1872Z" fill="#FEC473"/>
<path d="M49.8166 53.8552C49.8166 53.8552 11.0605 54.4665 17.2346 36.8612C17.2346 36.8612 18.9462 48.1702 49.8166 48.4147C80.7481 48.1702 82.3986 36.8612 82.3986 36.8612C88.5727 54.4665 49.8166 53.8552 49.8166 53.8552Z" fill="#5B8F9C"/>
</svg>
