<svg width="100" height="75" viewBox="0 0 100 75" fill="none" xmlns="http://www.w3.org/2000/svg">
<path d="M99.8829 60.5744C98.11 64.2975 90.3092 71.6255 55.7966 74.0485C51.9553 74.344 48.0549 74.344 44.2136 74.0485C9.76002 71.6255 1.90012 64.2975 0.12721 60.5744C-0.168275 59.9834 0.068113 59.2743 0.659083 58.9197C12.0057 51.6508 19.5701 38.8858 19.5701 24.4071C19.5701 22.7523 20.0429 14.5379 23.2341 10.1647C30.6803 0 50.0051 0 50.0051 0C50.0051 0 69.3298 0 76.776 10.1647C79.9672 14.5379 80.44 22.7523 80.44 24.4071C80.44 38.8858 87.9453 51.6508 99.351 58.9197C99.8829 59.2743 100.178 59.9834 99.8829 60.5744Z" fill="#FFCD6D"/>
<path d="M99.6465 60.7516C98.11 64.0611 91.7866 70.1481 66.434 73.2211C62.5927 70.7981 53.61 63.4701 50.4778 47.1593C46.4592 26.2981 60.1106 16.6653 70.2753 15.8379C75.2985 15.4243 78.3716 19.9156 80.2036 24.5252V24.5843C80.2036 39.0631 87.7089 51.828 99.1146 59.0969C99.7056 59.4515 99.942 60.1607 99.6465 60.7516Z" fill="#F4B963"/>
<path d="M17.8562 36.463C17.8562 36.463 21.2839 46.2731 62.829 46.2731L64.6611 57.7379C64.6611 57.7379 21.5203 58.7426 12.8921 47.1005L17.8562 36.463Z" fill="#C06F6E"/>
<path d="M70.098 43.0819C70.098 43.0819 60.0515 34.9265 55.9147 34.5129C52.2507 34.1583 59.106 68.4936 63.0064 68.4936C66.9659 68.4936 72.521 55.906 72.521 55.906L70.098 43.0819Z" fill="#D77C7B"/>
<path d="M79.0806 41.3089C79.0806 41.3089 85.3449 29.9622 89.068 28.0711C92.3183 26.4164 98.7599 60.8109 95.1549 62.2292C91.4909 63.7066 81.6808 54.0738 81.6808 54.0738L79.0806 41.3089Z" fill="#D77C7B"/>
<path d="M81.6216 54.133L72.5206 55.9059L70.0977 43.0819L79.0804 41.309L81.6216 54.133Z" fill="#D77C7B"/>
<path d="M64.6611 41.309L70.2753 45.5639L72.521 53.9557L66.6704 60.811L69.5071 52.301L66.9068 49.5234L68.857 49.1098L64.6611 41.309Z" fill="#C06F6E"/>
<path d="M81.8582 38.5903L79.7307 43.9091L81.3854 52.3008L87.6497 57.2059L82.8038 50.0551L84.2812 49.5233L81.9764 46.5684L81.8582 38.5903Z" fill="#C06F6E"/>
</svg>
