<svg width="324" height="253" viewBox="0 0 324 253" fill="none" xmlns="http://www.w3.org/2000/svg">
<path d="M206.641 131L184.543 237.208H203.033L199.959 249.385H164.721L176.098 193.011H119.724L107.218 249.385H90L112.324 143.177H96.5394L99.0186 131L132.925 131L121.774 183.315H177.635L188.849 131L206.641 131Z" fill="#5B8F9C"/>
<path d="M256.011 252.767C250.448 252.767 245.262 251.865 240.451 250.061C235.791 248.107 231.657 245.476 228.049 242.169C224.592 238.862 221.886 235.028 219.931 230.669C217.977 226.159 217 221.348 217 216.237C217 211.126 218.203 206.39 220.608 202.031C223.013 197.671 226.396 193.913 230.755 190.756C235.115 187.599 240.301 185.194 246.314 183.54C252.328 181.736 258.942 180.834 266.158 180.834C272.171 180.834 278.259 181.36 284.423 182.413C290.586 183.465 296.074 184.968 300.884 186.923V176.324C300.884 165.952 297.953 157.759 292.09 151.746C286.227 145.582 278.109 142.5 267.736 142.5C261.723 142.5 255.56 143.703 249.246 146.108C242.932 148.513 236.543 151.971 230.079 156.481L224.667 146.334C239.85 136.111 254.582 131 268.864 131C283.596 131 295.172 135.134 303.59 143.402C312.008 151.67 316.218 163.095 316.218 177.677V230.669C315.992 241.041 318.097 246.412 321.855 246.412V250.512C319.299 250.963 317.345 251.189 315.992 251.189C312.084 251.189 309.002 250.212 306.747 248.257C304.642 246.303 303.515 243.597 303.365 240.139L302.914 230.894C297.502 237.96 290.662 243.372 282.393 247.13C274.276 250.888 265.481 252.767 256.011 252.767ZM259.619 241.041C267.586 241.041 274.877 239.538 281.492 236.531C288.256 233.525 293.368 229.541 296.825 224.58C298.178 223.227 299.155 221.799 299.757 220.296C300.508 218.642 300.884 217.139 300.884 215.786V196.619C295.773 194.665 290.436 193.161 284.874 192.109C279.462 191.057 273.9 190.531 268.187 190.531C257.364 190.531 248.569 192.786 241.804 197.295C235.04 201.805 231.657 207.743 231.657 215.11C231.657 218.717 232.334 222.1 233.687 225.257C235.19 228.414 237.144 231.195 239.55 233.6C242.105 235.855 245.112 237.659 248.569 239.012C252.027 240.365 255.71 241.041 259.619 241.041Z" fill="#242E51"/>
<path d="M33.5987 131C11.7257 131 0 144.079 0 167.53V212.178C0 235.629 11.7257 248.934 33.5987 248.934C55.2462 248.934 67.1974 235.629 67.1974 212.178V210.374H50.7363V213.757C50.7363 227.512 44.8734 233.825 33.8242 233.825C22.7749 233.825 17.1376 227.512 17.1376 213.757V192.56H67.1974V167.53C67.1974 144.079 55.2462 131 33.5987 131ZM17.1376 178.579V165.952C17.1376 152.422 22.7749 146.108 33.5987 146.108C44.4224 146.108 50.5108 152.422 50.5108 165.952V178.579H17.1376Z" fill="#C2D2C5"/>
<path d="M62.1712 82.4465H61.5947C58.6478 84.8168 55.8292 86.9948 53.1386 88.9807C50.448 90.9666 47.7895 92.6322 45.163 93.9775C42.0881 95.5149 39.3014 96.604 36.803 97.2446C34.3047 97.9493 31.0376 98.3016 27.0017 98.3016C20.8519 98.3016 16.0793 96.5399 12.6841 93.0166C9.28885 89.4292 7.59123 84.7527 7.59123 78.9872C7.59123 77.4497 7.71935 75.624 7.97559 73.51C8.23184 71.396 8.84042 68.257 9.80133 64.093L17.2965 33.632C17.9371 30.8133 18.4496 28.315 18.8339 26.1369C19.2824 23.9588 19.5066 21.8768 19.5066 19.8909C19.5066 16.3035 18.898 13.9333 17.6808 12.7802C16.5277 11.563 14.1255 10.9544 10.474 10.9544C9.06463 10.9544 7.27092 11.2107 5.09285 11.7232C2.91478 12.2356 1.21716 12.652 0 12.9723L1.44137 6.82249C6.43813 4.58036 10.8263 2.88274 14.6059 1.72964C18.4496 0.576554 21.5245 0 23.8307 0C28.9556 0 32.7031 1.21716 35.0734 3.65147C37.5077 6.02173 38.7249 9.41696 38.7249 13.8372C38.7249 14.9903 38.5968 16.5598 38.3405 18.5456C38.0843 20.5315 37.6999 22.5174 37.1874 24.5033L28.6353 60.0572C27.9947 62.7477 27.4501 65.2782 27.0017 67.6484C26.6173 69.9546 26.4252 71.7163 26.4252 72.9334C26.4252 77.2255 27.354 80.6208 29.2118 83.1191C31.0696 85.6175 34.0164 86.8667 38.0522 86.8667C42.1521 86.8667 46.3481 85.8097 50.6402 83.6957C54.9964 81.5176 59.3525 78.2505 63.7087 73.8944L80.5247 1.53746L97.2446 0.384366L98.3977 1.82574L84.0801 63.7087C83.4395 66.3352 82.8629 68.9937 82.3504 71.6843C81.8379 74.3108 81.5817 76.1685 81.5817 77.2576C81.5817 80.909 82.3504 83.4074 83.8879 84.7527C85.4894 86.0339 88.1159 86.6745 91.7674 86.6745C92.9845 86.6745 94.7142 86.4823 96.9563 86.098C99.1985 85.7136 100.928 85.2972 102.145 84.8488L100.704 90.9987C95.3868 93.1767 90.9346 94.8103 87.3472 95.8993C83.8238 96.9884 80.5567 97.5329 77.5458 97.5329C72.3569 97.5329 68.4812 96.0274 65.9188 93.0166C63.4204 90.0057 62.1712 86.4823 62.1712 82.4465Z" fill="#C06F6E"/>
<path d="M119 14.9807H138.167V83.7566H119V97.7373H168.158V83.7566H155.756V14.9807L216.332 83.7566H227.607L287.199 15.4522V83.7566H274.797V97.7373H323.954V83.7566H304.787V14.9807H323.954V1H278.896L221.457 64.5485L164.058 1H119V14.9807Z" fill="#E1AFA4"/>
</svg>
