<svg width="375" height="812" viewBox="0 0 375 812" fill="none" xmlns="http://www.w3.org/2000/svg">
<rect width="375" height="812" rx="20" fill="white"/>
<path d="M88.1712 161.895H87.5947C84.6478 164.265 81.8292 166.443 79.1386 168.429C76.448 170.415 73.7895 172.08 71.163 173.426C68.0881 174.963 65.3014 176.052 62.803 176.693C60.3047 177.398 57.0376 177.75 53.0017 177.75C46.8519 177.75 42.0793 175.988 38.6841 172.465C35.2888 168.877 33.5912 164.201 33.5912 158.435C33.5912 156.898 33.7194 155.072 33.9756 152.958C34.2318 150.844 34.8404 147.705 35.8013 143.541L43.2965 113.08C43.9371 110.262 44.4496 107.763 44.8339 105.585C45.2824 103.407 45.5066 101.325 45.5066 99.3392C45.5066 95.7518 44.898 93.3815 43.6808 92.2284C42.5277 91.0113 40.1255 90.4027 36.474 90.4027C35.0646 90.4027 33.2709 90.6589 31.0928 91.1714C28.9148 91.6839 27.2172 92.1003 26 92.4206L27.4414 86.2707C32.4381 84.0286 36.8263 82.331 40.6059 81.1779C44.4496 80.0248 47.5245 79.4482 49.8307 79.4482C54.9556 79.4482 58.7031 80.6654 61.0734 83.0997C63.5077 85.47 64.7249 88.8652 64.7249 93.2854C64.7249 94.4385 64.5968 96.008 64.3405 97.9939C64.0843 99.9798 63.6999 101.966 63.1874 103.952L54.6353 139.505C53.9947 142.196 53.4501 144.726 53.0017 147.097C52.6173 149.403 52.4252 151.165 52.4252 152.382C52.4252 156.674 53.354 160.069 55.2118 162.567C57.0696 165.066 60.0164 166.315 64.0522 166.315C68.1521 166.315 72.3481 165.258 76.6402 163.144C80.9964 160.966 85.3525 157.699 89.7087 153.343L106.525 80.9857L123.245 79.8326L124.398 81.274L110.08 143.157C109.439 145.783 108.863 148.442 108.35 151.133C107.838 153.759 107.582 155.617 107.582 156.706C107.582 160.357 108.35 162.856 109.888 164.201C111.489 165.482 114.116 166.123 117.767 166.123C118.985 166.123 120.714 165.931 122.956 165.546C125.198 165.162 126.928 164.745 128.145 164.297L126.704 170.447C121.387 172.625 116.935 174.259 113.347 175.348C109.824 176.437 106.557 176.981 103.546 176.981C98.3569 176.981 94.4812 175.476 91.9188 172.465C89.4204 169.454 88.1712 165.931 88.1712 161.895Z" fill="#C06F6E"/>
<path d="M144.481 92.9807H163.648V161.757H144.481V175.737H193.639V161.757H181.237V92.9807L241.813 161.757H253.088L312.68 93.4522V161.757H300.278V175.737H349.436V161.757H330.269V92.9807H349.436V79H304.378L246.938 142.549L189.539 79H144.481V92.9807Z" fill="#E1AFA4"/>
<path d="M61.8956 205.216C40.0226 205.216 28.2969 218.295 28.2969 241.746V286.394C28.2969 309.845 40.0226 323.15 61.8956 323.15C83.5431 323.15 95.4943 309.845 95.4943 286.394V284.59H79.0332V287.972C79.0332 301.728 73.1703 308.041 62.1211 308.041C51.0718 308.041 45.4345 301.728 45.4345 287.972V266.776H95.4943V241.746C95.4943 218.295 83.5431 205.216 61.8956 205.216ZM45.4345 252.795V240.167C45.4345 226.638 51.0718 220.324 61.8956 220.324C72.7193 220.324 78.8077 226.638 78.8077 240.167V252.795H45.4345Z" fill="#C2D2C5"/>
<path d="M234.472 206.609L212.374 312.817H230.864L227.79 324.994H192.552L203.929 268.62H147.556L135.05 324.994H117.831L140.155 218.786H124.371L126.85 206.609L160.756 206.609L149.606 258.924H205.467L216.68 206.609L234.472 206.609Z" fill="#5B8F9C"/>
<path d="M284.155 327.249C278.593 327.249 273.407 326.347 268.596 324.543C263.936 322.589 259.802 319.958 256.194 316.651C252.736 313.344 250.03 309.51 248.076 305.151C246.122 300.641 245.145 295.83 245.145 290.719C245.145 285.608 246.347 280.872 248.752 276.513C251.158 272.153 254.54 268.395 258.9 265.238C263.259 262.081 268.446 259.676 274.459 258.022C280.472 256.218 287.087 255.316 294.302 255.316C300.316 255.316 306.404 255.842 312.567 256.895C318.731 257.947 324.218 259.45 329.029 261.405V250.806C329.029 240.434 326.097 232.241 320.234 226.227C314.371 220.064 306.254 216.982 295.881 216.982C289.868 216.982 283.704 218.185 277.39 220.59C271.076 222.995 264.687 226.453 258.223 230.963L252.811 220.816C267.995 210.593 282.727 205.482 297.008 205.482C311.741 205.482 323.316 209.616 331.735 217.884C340.153 226.152 344.362 237.577 344.362 252.159V305.151C344.137 315.523 346.241 320.894 350 320.894V324.994C347.444 325.445 345.49 325.671 344.137 325.671C340.228 325.671 337.146 324.694 334.891 322.739C332.787 320.785 331.659 318.079 331.509 314.621L331.058 305.376C325.646 312.442 318.806 317.854 310.538 321.612C302.42 325.37 293.626 327.249 284.155 327.249ZM287.763 315.523C295.731 315.523 303.022 314.02 309.636 311.013C316.401 308.007 321.512 304.023 324.97 299.062C326.323 297.709 327.3 296.281 327.901 294.778C328.653 293.124 329.029 291.621 329.029 290.268V271.101C323.917 269.147 318.581 267.643 313.018 266.591C307.607 265.539 302.044 265.013 296.332 265.013C285.508 265.013 276.714 267.268 269.949 271.777C263.184 276.287 259.802 282.225 259.802 289.591C259.802 293.199 260.478 296.582 261.831 299.739C263.334 302.896 265.289 305.677 267.694 308.082C270.25 310.337 273.256 312.141 276.714 313.494C280.171 314.847 283.854 315.523 287.763 315.523Z" fill="#242E51"/>
<path d="M8.476 375.796H17.332L22.66 389.944L27.736 375.796H36.484V378.928H33.316V393.868H36.484V397H27.376V393.868H29.68V378.532L28.168 383.32L24.1 394.444H21.04L16.54 383.032L14.992 378.676L14.956 393.868H17.332V397H8.404V393.868H11.644V378.928H8.476V375.796ZM39.5215 381.16H47.6935V384.004H45.9655V392.68L53.3095 381.196L59.7175 381.16V384.004H56.6935V394.156H59.7175V397H51.5815V394.156H53.3095V385.408L45.9655 397H39.5215V394.156H42.5815V384.004H39.5215V381.16ZM62.9356 381.196H71.2156V384.004H69.7036V394.156H74.5996V384.004H73.5196V381.196H79.6036V384.004H78.0916V394.156H82.8436V384.004H81.9436V381.196H89.6116V384.004H86.3356V394.156H89.6116V397H63.0076V394.156H66.2116V384.004H62.9356V381.196ZM103.773 396.136C102.141 397.12 100.437 397.612 98.6613 397.612C94.2933 397.612 92.0973 395.968 92.0733 392.68C92.0733 389.416 94.1853 387.784 98.4093 387.784L102.693 387.82C102.693 386.308 102.393 385.18 101.793 384.436C101.217 383.692 100.389 383.32 99.3093 383.32C98.2053 383.32 97.1853 383.464 96.2493 383.752L95.9253 385.624L93.0093 385.192L93.6213 381.592C94.5573 381.256 95.4933 381.004 96.4293 380.836C97.3893 380.668 98.3493 380.584 99.3093 380.584C101.565 380.584 103.281 381.184 104.457 382.384C105.657 383.584 106.257 385.36 106.257 387.712V393.796L109.461 394.84L108.525 397.756L103.773 396.136ZM98.5173 390.304C96.6453 390.304 95.7093 391.084 95.7093 392.644C95.7093 394.132 96.7413 394.876 98.8053 394.876C100.269 394.876 101.565 394.48 102.693 393.688V390.304H98.5173Z" fill="#5B8F9C"/>
<path d="M136.4 375.4H143.24V371.8H132.44V397H143.24V393.4H136.4V386.02H141.836V382.42H136.4V375.4ZM149.69 397V375.4H156.17V371.8H145.73V397H149.69ZM162.478 377.596C162.478 375.796 163.27 375.112 164.53 375.112C165.79 375.112 166.582 375.796 166.582 377.596V391.204C166.582 393.004 165.79 393.688 164.53 393.688C163.27 393.688 162.478 393.004 162.478 391.204V377.596ZM158.518 390.952C158.518 394.984 160.642 397.288 164.53 397.288C168.418 397.288 170.542 394.984 170.542 390.952V377.848C170.542 373.816 168.418 371.512 164.53 371.512C160.642 371.512 158.518 373.816 158.518 377.848V390.952ZM178.948 371.8H173.116V397H177.076V387.532H178.948C182.908 387.532 184.852 385.336 184.852 381.304V378.028C184.852 373.996 182.908 371.8 178.948 371.8ZM178.948 375.4C180.208 375.4 180.892 375.976 180.892 377.776V381.556C180.892 383.356 180.208 383.932 178.948 383.932H177.076V375.4H178.948Z" fill="#C2D2C5"/>
<path d="M215.936 394.984L215.504 397H205.244L205.64 394.984H208.916L213.416 373.816H210.14L210.572 371.8H220.868L220.436 373.816H217.448L215.504 383.068H228.104L230.048 373.816H227.06L227.492 371.8H237.788L237.356 373.816H234.08L229.58 394.984H232.856L232.424 397H222.164L222.56 394.984H225.548L227.672 385.084H215.072L212.948 394.984H215.936ZM254.585 395.056V397H247.961L248.717 392.752H248.573C248.213 393.256 247.769 393.784 247.241 394.336C246.713 394.864 246.113 395.356 245.441 395.812C244.793 396.244 244.073 396.616 243.281 396.928C242.513 397.216 241.697 397.36 240.833 397.36C239.729 397.36 238.853 397.072 238.205 396.496C237.557 395.896 237.233 395.032 237.233 393.904C237.233 393.568 237.257 393.136 237.305 392.608C237.377 392.056 237.485 391.432 237.629 390.736L239.897 380.044H237.413V378.1H243.893L241.409 388.864C241.265 389.488 241.121 390.16 240.977 390.88C240.833 391.576 240.761 392.26 240.761 392.932C240.761 393.652 240.917 394.192 241.229 394.552C241.541 394.888 241.949 395.056 242.453 395.056C243.269 395.056 244.037 394.864 244.757 394.48C245.501 394.096 246.161 393.652 246.737 393.148C247.337 392.62 247.829 392.08 248.213 391.528C248.621 390.976 248.921 390.52 249.113 390.16L251.525 378.1H254.945L251.669 395.056H254.585ZM276.89 378.1L273.362 395.056H276.314V397H269.618L271.346 388.396H263.786L261.878 397H258.422L261.986 380.044H259.466V378.1H265.982L264.146 386.452H271.742L273.47 378.1H276.89ZM286.623 395.056C287.079 395.056 287.583 394.924 288.135 394.66C288.687 394.372 289.227 394.012 289.755 393.58C290.307 393.148 290.811 392.668 291.267 392.14C291.747 391.588 292.143 391.048 292.455 390.52L294.363 380.728C294.123 380.416 293.763 380.164 293.283 379.972C292.827 379.78 292.299 379.684 291.699 379.684C290.475 379.684 289.395 380.032 288.459 380.728C287.523 381.4 286.731 382.288 286.083 383.392C285.435 384.496 284.943 385.732 284.607 387.1C284.271 388.444 284.103 389.776 284.103 391.096C284.103 393.736 284.943 395.056 286.623 395.056ZM292.023 392.788C291.783 393.196 291.447 393.664 291.015 394.192C290.583 394.72 290.055 395.224 289.431 395.704C288.831 396.16 288.147 396.556 287.379 396.892C286.611 397.204 285.783 397.36 284.895 397.36C283.527 397.36 282.423 396.892 281.583 395.956C280.767 395.02 280.359 393.616 280.359 391.744C280.359 389.968 280.611 388.24 281.115 386.56C281.619 384.88 282.351 383.392 283.311 382.096C284.271 380.776 285.447 379.72 286.839 378.928C288.255 378.136 289.875 377.74 291.699 377.74C292.371 377.74 293.007 377.872 293.607 378.136C294.231 378.376 294.675 378.652 294.939 378.964L295.515 378.1H298.287L294.903 395.056H297.855V397H291.483L292.239 392.788H292.023Z" fill="#E1AFA4"/>
<path d="M330.26 371.44H334.076L344.012 397H339.764L337.064 390.052H327.2L324.536 397H320.252L330.26 371.44ZM336.272 387.064L332.168 375.868L327.92 387.064H336.272ZM346.669 397V378.172H350.629V385.66H359.377V378.172H363.337V397H359.377V389.08H350.629V397H346.669ZM366.314 401.5V393.508H366.746C367.418 393.508 368.018 393.244 368.546 392.716C369.098 392.188 369.542 391.228 369.878 389.836C370.238 388.444 370.454 386.452 370.526 383.86L370.742 378.172H384.17V393.508H386.762V401.5H383.27V397H369.77V401.5H366.314ZM371.966 393.508H380.21V381.592H374.234L374.126 384.22C374.006 386.98 373.766 389.08 373.406 390.52C373.07 391.96 372.59 392.956 371.966 393.508ZM400.814 397.36C399.302 397.36 397.97 397 396.818 396.28C395.666 395.56 394.754 394.624 394.082 393.472V404.668H390.122V378.172H393.614V381.556C394.334 380.428 395.27 379.528 396.422 378.856C397.574 378.184 398.858 377.848 400.274 377.848C402.002 377.848 403.526 378.304 404.846 379.216C406.19 380.104 407.246 381.292 408.014 382.78C408.782 384.244 409.166 385.84 409.166 387.568C409.166 389.392 408.806 391.048 408.086 392.536C407.366 394 406.382 395.176 405.134 396.064C403.886 396.928 402.446 397.36 400.814 397.36ZM399.518 393.976C400.646 393.976 401.618 393.676 402.434 393.076C403.274 392.452 403.922 391.66 404.378 390.7C404.858 389.716 405.098 388.672 405.098 387.568C405.098 386.416 404.834 385.36 404.306 384.4C403.802 383.44 403.106 382.672 402.218 382.096C401.354 381.52 400.358 381.232 399.23 381.232C398.558 381.232 397.85 381.4 397.106 381.736C396.386 382.072 395.75 382.516 395.198 383.068C394.646 383.62 394.274 384.244 394.082 384.94V389.872C394.562 391.024 395.294 391.996 396.278 392.788C397.286 393.58 398.366 393.976 399.518 393.976ZM421.26 397.36C419.316 397.36 417.612 396.916 416.148 396.028C414.684 395.14 413.544 393.964 412.728 392.5C411.912 391.012 411.504 389.392 411.504 387.64C411.504 385.864 411.912 384.232 412.728 382.744C413.544 381.256 414.684 380.068 416.148 379.18C417.612 378.292 419.328 377.848 421.296 377.848C423.264 377.848 424.968 378.304 426.408 379.216C427.848 380.104 428.952 381.28 429.72 382.744C430.512 384.208 430.908 385.78 430.908 387.46C430.908 388.06 430.872 388.54 430.8 388.9H415.716C415.788 390.004 416.088 390.976 416.616 391.816C417.168 392.632 417.852 393.28 418.668 393.76C419.508 394.216 420.42 394.444 421.404 394.444C422.46 394.444 423.456 394.18 424.392 393.652C425.328 393.124 425.976 392.428 426.336 391.564L429.72 392.536C429.072 393.952 427.992 395.116 426.48 396.028C424.992 396.916 423.252 397.36 421.26 397.36ZM415.608 386.272H426.984C426.888 385.192 426.576 384.244 426.048 383.428C425.52 382.588 424.836 381.94 423.996 381.484C423.18 381.004 422.268 380.764 421.26 380.764C420.276 380.764 419.364 381.004 418.524 381.484C417.708 381.94 417.036 382.588 416.508 383.428C415.98 384.244 415.68 385.192 415.608 386.272ZM434.138 397V378.208H438.098V391.708L447.638 378.172H451.238V397H447.278V383.788L437.846 397H434.138ZM442.706 376.228C440.93 376.228 439.55 375.784 438.566 374.896C437.606 374.008 437.126 372.892 437.126 371.548H439.718C439.718 372.244 439.946 372.82 440.402 373.276C440.882 373.732 441.65 373.96 442.706 373.96C443.738 373.96 444.47 373.744 444.902 373.312C445.334 372.88 445.61 372.292 445.73 371.548H448.322C448.322 372.892 447.83 374.008 446.846 374.896C445.886 375.784 444.506 376.228 442.706 376.228Z" fill="#242E51"/>
<path d="M94.6932 579.8H98.0412V605H94.6932V583.292L88.5372 586.64V583.148L94.6932 579.8ZM102.198 605V602.264L111.09 593.264C113.466 590.888 114.654 588.824 114.654 587.072C114.654 585.656 114.222 584.552 113.358 583.76C112.518 582.968 111.474 582.572 110.226 582.572C108.834 582.572 107.694 582.956 106.806 583.724C105.942 584.468 105.51 585.596 105.51 587.108H102.198C102.198 584.588 102.978 582.668 104.538 581.348C106.098 580.004 107.982 579.332 110.19 579.332C112.278 579.332 114.102 580.016 115.662 581.384C117.222 582.752 118.002 584.648 118.002 587.072C118.002 589.664 116.514 592.424 113.538 595.352L107.058 601.76H118.47V605H102.198ZM147.354 601.904C145.65 604.28 143.262 605.468 140.19 605.468C137.118 605.468 134.73 604.28 133.026 601.904C131.322 599.528 130.47 596.36 130.47 592.4C130.47 588.44 131.322 585.272 133.026 582.896C134.73 580.52 137.118 579.332 140.19 579.332C143.262 579.332 145.65 580.52 147.354 582.896C149.058 585.272 149.91 588.44 149.91 592.4C149.91 596.36 149.058 599.528 147.354 601.904ZM135.474 599.636C136.578 601.34 138.15 602.192 140.19 602.192C142.23 602.192 143.802 601.34 144.906 599.636C146.034 597.932 146.598 595.52 146.598 592.4C146.598 589.28 146.034 586.868 144.906 585.164C143.802 583.436 142.23 582.572 140.19 582.572C138.15 582.572 136.578 583.424 135.474 585.128C134.37 586.832 133.818 589.256 133.818 592.4C133.818 595.52 134.37 597.932 135.474 599.636ZM170.029 601.904C168.325 604.28 165.937 605.468 162.865 605.468C159.793 605.468 157.405 604.28 155.701 601.904C153.997 599.528 153.145 596.36 153.145 592.4C153.145 588.44 153.997 585.272 155.701 582.896C157.405 580.52 159.793 579.332 162.865 579.332C165.937 579.332 168.325 580.52 170.029 582.896C171.733 585.272 172.585 588.44 172.585 592.4C172.585 596.36 171.733 599.528 170.029 601.904ZM158.149 599.636C159.253 601.34 160.825 602.192 162.865 602.192C164.905 602.192 166.477 601.34 167.581 599.636C168.709 597.932 169.273 595.52 169.273 592.4C169.273 589.28 168.709 586.868 167.581 585.164C166.477 583.436 164.905 582.572 162.865 582.572C160.825 582.572 159.253 583.424 158.149 585.128C157.045 586.832 156.493 589.256 156.493 592.4C156.493 595.52 157.045 597.932 158.149 599.636ZM192.705 601.904C191.001 604.28 188.613 605.468 185.541 605.468C182.469 605.468 180.081 604.28 178.377 601.904C176.673 599.528 175.821 596.36 175.821 592.4C175.821 588.44 176.673 585.272 178.377 582.896C180.081 580.52 182.469 579.332 185.541 579.332C188.613 579.332 191.001 580.52 192.705 582.896C194.409 585.272 195.261 588.44 195.261 592.4C195.261 596.36 194.409 599.528 192.705 601.904ZM180.825 599.636C181.929 601.34 183.501 602.192 185.541 602.192C187.581 602.192 189.153 601.34 190.257 599.636C191.385 597.932 191.949 595.52 191.949 592.4C191.949 589.28 191.385 586.868 190.257 585.164C189.153 583.436 187.581 582.572 185.541 582.572C183.501 582.572 181.929 583.424 180.825 585.128C179.721 586.832 179.169 589.256 179.169 592.4C179.169 595.52 179.721 597.932 180.825 599.636ZM220.241 587H222.761V605H219.665V592.4L210.773 605H208.253V587H211.349V599.6L220.241 587ZM245.699 587V605H242.639V591.932L237.671 601.436H235.583L230.615 591.932V605H227.519V587H230.615H230.975L236.627 597.836L242.243 587H245.699ZM252.672 597.44C252.936 599.072 253.62 600.344 254.724 601.256C255.852 602.168 257.232 602.624 258.864 602.624C259.968 602.624 260.952 602.384 261.816 601.904C262.704 601.4 263.34 600.764 263.724 599.996H267C266.472 601.652 265.476 602.984 264.012 603.992C262.548 604.976 260.82 605.468 258.828 605.468C256.044 605.468 253.788 604.58 252.06 602.804C250.332 601.004 249.468 598.736 249.468 596C249.468 593.288 250.332 591.032 252.06 589.232C253.788 587.432 256.032 586.532 258.792 586.532C261.432 586.532 263.556 587.468 265.164 589.34C266.796 591.188 267.612 593.42 267.612 596.036C267.612 596.492 267.576 596.96 267.504 597.44H252.672ZM252.672 594.668H264.408C264.192 592.988 263.556 591.704 262.5 590.816C261.444 589.928 260.196 589.484 258.756 589.484C257.1 589.484 255.732 589.952 254.652 590.888C253.596 591.824 252.936 593.084 252.672 594.668ZM282.418 587H285.55V605H282.418V597.476H274.174V605H271.042V587H274.174V594.488H282.418V587Z" fill="#5DADC1"/>
</svg>
