<svg width="96" height="81" viewBox="0 0 96 81" fill="none" xmlns="http://www.w3.org/2000/svg">
<path d="M83.3878 69.3819C83.7463 70.1501 83.7463 71.0719 83.2854 71.7889C81.4929 74.5545 74.5791 80.0856 47.7942 80.0856C21.0094 80.0856 14.0956 74.5545 12.3031 71.7889C11.8422 71.0719 11.791 70.1501 12.2007 69.3819C16.8611 59.9585 18.8072 20.4215 18.8072 20.4215L47.7942 22.7773L76.73 20.4215C76.73 20.4215 78.7274 59.9585 83.3878 69.3819Z" fill="#3B294C"/>
<path d="M77.3446 19.09V28.5133C77.3446 28.5133 73.7596 32.508 48.8185 32.508C21.0607 32.508 18.2439 28.5133 18.2439 28.5133V19.09H77.3446Z" fill="#FFCD6D"/>
<path opacity="0.25" d="M80.6223 59.1903C68.9455 20.6264 33.1471 23.5455 28.333 22.1628L46.5651 22.6237L48.5625 22.7773L77.4982 20.4215C77.4982 20.4215 76.013 28.8206 80.6223 59.1903Z" fill="#000001"/>
<path d="M47.9991 23.5455C23.1604 23.5455 -4.13652 16.6829 0.523933 7.31077C3.28948 1.77968 18.9609 0.294479 31.5595 0.0384103C33.352 -0.0128034 62.5438 -0.0128034 64.3363 0.0384103C76.9861 0.294479 92.7087 1.77968 95.4743 7.31077C100.186 16.6829 72.3256 23.5455 47.9991 23.5455Z" fill="#3B294C"/>
<path d="M50.0477 18.5778C35.0933 18.5778 18.7049 14.3271 21.5216 8.4375C23.8263 3.67462 41.1365 3.72584 47.5894 3.93069C49.2283 3.98191 50.8671 3.98191 52.4548 3.93069C58.9589 3.72584 76.2179 3.67462 78.5226 8.4375C81.3905 14.3271 64.6436 18.5778 50.0477 18.5778Z" fill="#000001"/>
<path d="M77.447 12.4321C72.0696 9.61539 58.754 9.20568 53.2741 9.35932C51.6353 9.41054 49.638 9.41054 48.0503 9.35932C42.1608 9.20568 27.9233 9.56418 23.5189 13.1491C21.5216 11.7664 20.651 10.1787 21.5216 8.43747C23.8262 3.67459 39.8561 3.36731 47.7943 3.36731C49.4331 3.36731 50.7647 3.41852 52.4035 3.41852C60.1368 3.41852 76.2691 3.72581 78.5737 8.48869C79.2395 9.87146 78.7786 11.203 77.447 12.4321Z" fill="#7D6899"/>
</svg>
